<svg xmlns="http://www.w3.org/2000/svg" width="800" height="500" viewBox="0 0 800 500">
  <!-- 背景 -->
  <rect width="800" height="500" fill="#f8f9fa" />
  
  <!-- 标题 -->
  <text x="400" y="40" font-family="Arial" font-size="24" text-anchor="middle" font-weight="bold">ELFK 生产集群架构</text>
  
  <!-- 服务器图标 -->
  <defs>
    <symbol id="server" viewBox="0 0 60 80">
      <rect x="5" y="5" width="50" height="70" rx="2" ry="2" fill="#fff" stroke="#333" stroke-width="2" />
      <rect x="10" y="10" width="40" height="5" rx="1" ry="1" fill="#888" />
      <rect x="10" y="20" width="40" height="5" rx="1" ry="1" fill="#888" />
      <rect x="10" y="30" width="40" height="5" rx="1" ry="1" fill="#888" />
    </symbol>
  </defs>
  
  <!-- 应用服务器组 -->
  <g transform="translate(50, 100)">
    <use href="#server" width="60" height="80" />
    <use href="#server" width="60" height="80" x="20" y="10" />
    <use href="#server" width="60" height="80" x="40" y="20" />
    <text x="70" y="120" font-family="Arial" font-size="14" text-anchor="middle">应用服务器</text>
    
    <!-- Filebeat -->
    <rect x="30" y="50" width="80" height="30" rx="5" ry="5" fill="#00bfb3" />
    <text x="70" y="70" font-family="Arial" font-size="12" fill="white" text-anchor="middle">Filebeat</text>
  </g>
  
  <!-- Kafka集群 -->
  <g transform="translate(250, 100)">
    <use href="#server" width="60" height="80" />
    <use href="#server" width="60" height="80" x="20" y="10" />
    <use href="#server" width="60" height="80" x="40" y="20" />
    <rect x="30" y="50" width="80" height="30" rx="5" ry="5" fill="#231f20" />
    <text x="70" y="70" font-family="Arial" font-size="12" fill="white" text-anchor="middle">Kafka 集群</text>
    <text x="70" y="120" font-family="Arial" font-size="14" text-anchor="middle">消息队列</text>
  </g>
  
  <!-- Logstash服务器 -->
  <g transform="translate(450, 100)">
    <use href="#server" width="60" height="80" />
    <use href="#server" width="60" height="80" x="20" y="10" />
    <rect x="30" y="50" width="80" height="30" rx="5" ry="5" fill="#fec514" />
    <text x="70" y="70" font-family="Arial" font-size="12" text-anchor="middle">Logstash</text>
    <text x="70" y="120" font-family="Arial" font-size="14" text-anchor="middle">日志处理</text>
  </g>
  
  <!-- Elasticsearch集群 -->
  <g transform="translate(250, 250)">
    <use href="#server" width="60" height="80" />
    <use href="#server" width="60" height="80" x="20" y="10" />
    <use href="#server" width="60" height="80" x="40" y="20" />
    <use href="#server" width="60" height="80" x="60" y="30" />
    <use href="#server" width="60" height="80" x="80" y="40" />
    <use href="#server" width="60" height="80" x="100" y="50" />
    <rect x="60" y="70" width="100" height="30" rx="5" ry="5" fill="#0077cc" />
    <text x="110" y="90" font-family="Arial" font-size="12" fill="white" text-anchor="middle">Elasticsearch 集群</text>
    <text x="110" y="140" font-family="Arial" font-size="14" text-anchor="middle">存储与检索</text>
  </g>
  
  <!-- Kibana服务器 -->
  <g transform="translate(600, 250)">
    <use href="#server" width="60" height="80" />
    <use href="#server" width="60" height="80" x="20" y="10" />
    <rect x="30" y="50" width="80" height="30" rx="5" ry="5" fill="#e8488b" />
    <text x="70" y="70" font-family="Arial" font-size="12" fill="white" text-anchor="middle">Kibana</text>
    <text x="70" y="120" font-family="Arial" font-size="14" text-anchor="middle">可视化</text>
  </g>
  
  <!-- 连接线 -->
  <!-- Filebeat到Kafka -->
  <path d="M150,150 L250,150" stroke="#666" stroke-width="2" fill="none" marker-end="url(#arrowhead)" />
  <!-- Kafka到Logstash -->
  <path d="M350,150 L450,150" stroke="#666" stroke-width="2" fill="none" marker-end="url(#arrowhead)" />
  <!-- Logstash到Elasticsearch -->
  <path d="M500,180 L400,250" stroke="#666" stroke-width="2" fill="none" marker-end="url(#arrowhead)" />
  <!-- Elasticsearch到Kibana -->
  <path d="M400,300 L600,300" stroke="#666" stroke-width="2" fill="none" marker-end="url(#arrowhead)" />
  
  <!-- 箭头标记 -->
  <defs>
    <marker id="arrowhead" markerWidth="10" markerHeight="7" refX="9" refY="3.5" orient="auto">
      <polygon points="0 0, 10 3.5, 0 7" fill="#666" />
    </marker>
  </defs>
  
  <!-- 数据流说明 -->
  <text x="200" y="140" font-family="Arial" font-size="10" text-anchor="middle">日志收集</text>
  <text x="400" y="140" font-family="Arial" font-size="10" text-anchor="middle">消息消费</text>
  <text x="450" y="230" font-family="Arial" font-size="10" text-anchor="middle">数据索引</text>
  <text x="500" y="290" font-family="Arial" font-size="10" text-anchor="middle">数据查询与展示</text>
  
  <!-- 图例 -->
  <g transform="translate(50, 400)">
    <rect x="0" y="0" width="20" height="10" fill="#00bfb3" />
    <text x="25" y="10" font-family="Arial" font-size="12">Filebeat - 轻量级日志收集器</text>
    
    <rect x="0" y="20" width="20" height="10" fill="#231f20" />
    <text x="25" y="30" font-family="Arial" font-size="12">Kafka - 分布式消息队列</text>
    
    <rect x="0" y="40" width="20" height="10" fill="#fec514" />
    <text x="25" y="50" font-family="Arial" font-size="12">Logstash - 数据处理管道</text>
    
    <rect x="300" y="0" width="20" height="10" fill="#0077cc" />
    <text x="325" y="10" font-family="Arial" font-size="12">Elasticsearch - 分布式搜索引擎</text>
    
    <rect x="300" y="20" width="20" height="10" fill="#e8488b" />
    <text x="325" y="30" font-family="Arial" font-size="12">Kibana - 数据可视化平台</text>
  </g>
  
  <!-- 底部说明 -->
  <text x="400" y="480" font-family="Arial" font-size="10" text-anchor="middle">ELFK集群提供高可用、高性能、可扩展的日志收集、处理、存储和分析能力</text>
</svg>