<svg width="200" height="200" viewBox="0 0 200 200" xmlns="http://www.w3.org/2000/svg">
  <!-- 背景 -->
  <rect width="200" height="200" fill="#ffffff" stroke="#e0e0e0" stroke-width="1"/>
  
  <!-- 模拟二维码图案 -->
  <g fill="#000000">
    <!-- 左上角定位点 -->
    <rect x="10" y="10" width="50" height="50" fill="none" stroke="#000" stroke-width="6"/>
    <rect x="22" y="22" width="26" height="26"/>
    
    <!-- 右上角定位点 -->
    <rect x="140" y="10" width="50" height="50" fill="none" stroke="#000" stroke-width="6"/>
    <rect x="152" y="22" width="26" height="26"/>
    
    <!-- 左下角定位点 -->
    <rect x="10" y="140" width="50" height="50" fill="none" stroke="#000" stroke-width="6"/>
    <rect x="22" y="152" width="26" height="26"/>
    
    <!-- 模拟数据点 -->
    <rect x="70" y="10" width="6" height="6"/>
    <rect x="82" y="10" width="6" height="6"/>
    <rect x="94" y="10" width="6" height="6"/>
    <rect x="106" y="10" width="6" height="6"/>
    <rect x="118" y="10" width="6" height="6"/>
    <rect x="130" y="10" width="6" height="6"/>
    
    <rect x="10" y="70" width="6" height="6"/>
    <rect x="22" y="70" width="6" height="6"/>
    <rect x="34" y="70" width="6" height="6"/>
    <rect x="46" y="70" width="6" height="6"/>
    <rect x="70" y="70" width="6" height="6"/>
    <rect x="82" y="70" width="6" height="6"/>
    <rect x="106" y="70" width="6" height="6"/>
    <rect x="130" y="70" width="6" height="6"/>
    <rect x="142" y="70" width="6" height="6"/>
    <rect x="154" y="70" width="6" height="6"/>
    <rect x="166" y="70" width="6" height="6"/>
    <rect x="178" y="70" width="6" height="6"/>
    
    <rect x="70" y="82" width="6" height="6"/>
    <rect x="94" y="82" width="6" height="6"/>
    <rect x="118" y="82" width="6" height="6"/>
    <rect x="142" y="82" width="6" height="6"/>
    <rect x="166" y="82" width="6" height="6"/>
    
    <rect x="82" y="94" width="6" height="6"/>
    <rect x="106" y="94" width="6" height="6"/>
    <rect x="130" y="94" width="6" height="6"/>
    <rect x="154" y="94" width="6" height="6"/>
    <rect x="178" y="94" width="6" height="6"/>
    
    <rect x="70" y="106" width="6" height="6"/>
    <rect x="94" y="106" width="6" height="6"/>
    <rect x="118" y="106" width="6" height="6"/>
    <rect x="142" y="106" width="6" height="6"/>
    <rect x="166" y="106" width="6" height="6"/>
    
    <rect x="82" y="118" width="6" height="6"/>
    <rect x="106" y="118" width="6" height="6"/>
    <rect x="130" y="118" width="6" height="6"/>
    <rect x="154" y="118" width="6" height="6"/>
    <rect x="178" y="118" width="6" height="6"/>
    
    <rect x="70" y="130" width="6" height="6"/>
    <rect x="82" y="130" width="6" height="6"/>
    <rect x="94" y="130" width="6" height="6"/>
    <rect x="106" y="130" width="6" height="6"/>
    <rect x="118" y="130" width="6" height="6"/>
    <rect x="130" y="130" width="6" height="6"/>
    <rect x="142" y="130" width="6" height="6"/>
    <rect x="154" y="130" width="6" height="6"/>
    <rect x="166" y="130" width="6" height="6"/>
    <rect x="178" y="130" width="6" height="6"/>
    
    <rect x="70" y="142" width="6" height="6"/>
    <rect x="94" y="142" width="6" height="6"/>
    <rect x="118" y="142" width="6" height="6"/>
    <rect x="142" y="142" width="6" height="6"/>
    <rect x="166" y="142" width="6" height="6"/>
    
    <rect x="82" y="154" width="6" height="6"/>
    <rect x="106" y="154" width="6" height="6"/>
    <rect x="130" y="154" width="6" height="6"/>
    <rect x="154" y="154" width="6" height="6"/>
    <rect x="178" y="154" width="6" height="6"/>
    
    <rect x="70" y="166" width="6" height="6"/>
    <rect x="82" y="166" width="6" height="6"/>
    <rect x="94" y="166" width="6" height="6"/>
    <rect x="106" y="166" width="6" height="6"/>
    <rect x="118" y="166" width="6" height="6"/>
    <rect x="130" y="166" width="6" height="6"/>
    <rect x="142" y="166" width="6" height="6"/>
    <rect x="154" y="166" width="6" height="6"/>
    <rect x="166" y="166" width="6" height="6"/>
    <rect x="178" y="166" width="6" height="6"/>
    
    <rect x="70" y="178" width="6" height="6"/>
    <rect x="94" y="178" width="6" height="6"/>
    <rect x="118" y="178" width="6" height="6"/>
    <rect x="142" y="178" width="6" height="6"/>
    <rect x="166" y="178" width="6" height="6"/>
    
    <!-- 中心对齐标记 -->
    <rect x="88" y="88" width="24" height="24" fill="none" stroke="#000" stroke-width="2"/>
    <rect x="94" y="94" width="12" height="12"/>
  </g>
  
  <!-- 微信logo -->
  <g transform="translate(85, 85)">
    <circle cx="15" cy="15" r="12" fill="#07C160"/>
    <path d="M10 12c0-1.5 1-3 3-3s3 1.5 3 3-1 3-3 3-3-1.5-3-3zm7 0c0-1.5 1-3 3-3s3 1.5 3 3-1 3-3 3-3-1.5-3-3z" fill="white"/>
    <path d="M12 16c1 1 2 1 3 1s2 0 3-1" stroke="white" stroke-width="1" fill="none" stroke-linecap="round"/>
  </g>
</svg>